<mxfile host="Electron" agent="Mozilla/5.0 (Windows NT 10.0; Win64; x64) AppleWebKit/537.36 (KHTML, like Gecko) draw.io/27.0.9 Chrome/134.0.6998.205 Electron/35.4.0 Safari/537.36" version="27.0.9">
  <diagram name="Page-1" id="LplE-YuC9rKh_acz0m3O">
    <mxGraphModel dx="2977" dy="2889" grid="1" gridSize="10" guides="1" tooltips="1" connect="1" arrows="1" fold="1" page="1" pageScale="1" pageWidth="850" pageHeight="1100" math="0" shadow="0">
      <root>
        <mxCell id="0" />
        <mxCell id="1" parent="0" />
        <mxCell id="SRW3x9XXhpBBO422Upoy-1" value="" style="strokeWidth=1;shadow=0;dashed=0;align=center;html=1;shape=mxgraph.mockup.containers.browserWindow;rSize=0;strokeColor=#666666;strokeColor2=#008cff;strokeColor3=#c4c4c4;mainText=,;recursiveResize=0;" vertex="1" parent="1">
          <mxGeometry x="1160" y="-650" width="550" height="450" as="geometry" />
        </mxCell>
        <mxCell id="SRW3x9XXhpBBO422Upoy-2" value="Login" style="strokeWidth=1;shadow=0;dashed=0;align=center;html=1;shape=mxgraph.mockup.containers.anchor;fontSize=17;fontColor=#666666;align=left;whiteSpace=wrap;" vertex="1" parent="SRW3x9XXhpBBO422Upoy-1">
          <mxGeometry x="60" y="12" width="110" height="26" as="geometry" />
        </mxCell>
        <mxCell id="SRW3x9XXhpBBO422Upoy-3" value="login.php" style="strokeWidth=1;shadow=0;dashed=0;align=center;html=1;shape=mxgraph.mockup.containers.anchor;rSize=0;fontSize=17;fontColor=#666666;align=left;" vertex="1" parent="SRW3x9XXhpBBO422Upoy-1">
          <mxGeometry x="130" y="60" width="250" height="26" as="geometry" />
        </mxCell>
        <mxCell id="SRW3x9XXhpBBO422Upoy-4" value="" style="strokeWidth=1;shadow=0;dashed=0;align=center;html=1;shape=mxgraph.mockup.forms.rrect;rSize=0;strokeColor=#999999;fillColor=#ffffff;" vertex="1" parent="SRW3x9XXhpBBO422Upoy-1">
          <mxGeometry x="180" y="130" width="200" height="300" as="geometry" />
        </mxCell>
        <mxCell id="SRW3x9XXhpBBO422Upoy-5" value="Log In" style="strokeWidth=1;shadow=0;dashed=0;align=center;html=1;shape=mxgraph.mockup.forms.anchor;fontSize=12;fontColor=#666666;align=left;resizeWidth=1;spacingLeft=0;" vertex="1" parent="SRW3x9XXhpBBO422Upoy-4">
          <mxGeometry width="100" height="20" relative="1" as="geometry">
            <mxPoint x="10" y="10" as="offset" />
          </mxGeometry>
        </mxCell>
        <mxCell id="SRW3x9XXhpBBO422Upoy-6" value="" style="shape=line;strokeColor=#ddeeff;strokeWidth=2;html=1;resizeWidth=1;" vertex="1" parent="SRW3x9XXhpBBO422Upoy-4">
          <mxGeometry width="180" height="10" relative="1" as="geometry">
            <mxPoint x="10" y="30" as="offset" />
          </mxGeometry>
        </mxCell>
        <mxCell id="SRW3x9XXhpBBO422Upoy-7" value="User Name:" style="strokeWidth=1;shadow=0;dashed=0;align=center;html=1;shape=mxgraph.mockup.forms.anchor;fontSize=12;fontColor=#666666;align=left;resizeWidth=1;spacingLeft=0;" vertex="1" parent="SRW3x9XXhpBBO422Upoy-4">
          <mxGeometry width="100" height="20" relative="1" as="geometry">
            <mxPoint x="10" y="40" as="offset" />
          </mxGeometry>
        </mxCell>
        <mxCell id="SRW3x9XXhpBBO422Upoy-8" value="johndoe" style="strokeWidth=1;shadow=0;dashed=0;align=center;html=1;shape=mxgraph.mockup.forms.rrect;rSize=0;strokeColor=#999999;fontColor=#666666;align=left;spacingLeft=5;resizeWidth=1;" vertex="1" parent="SRW3x9XXhpBBO422Upoy-4">
          <mxGeometry width="150" height="25" relative="1" as="geometry">
            <mxPoint x="10" y="60" as="offset" />
          </mxGeometry>
        </mxCell>
        <mxCell id="SRW3x9XXhpBBO422Upoy-9" value="Password:" style="strokeWidth=1;shadow=0;dashed=0;align=center;html=1;shape=mxgraph.mockup.forms.anchor;fontSize=12;fontColor=#666666;align=left;resizeWidth=1;spacingLeft=0;" vertex="1" parent="SRW3x9XXhpBBO422Upoy-4">
          <mxGeometry width="100" height="20" relative="1" as="geometry">
            <mxPoint x="10" y="95" as="offset" />
          </mxGeometry>
        </mxCell>
        <mxCell id="SRW3x9XXhpBBO422Upoy-10" value="********" style="strokeWidth=1;shadow=0;dashed=0;align=center;html=1;shape=mxgraph.mockup.forms.rrect;rSize=0;strokeColor=#999999;fontColor=#666666;align=left;spacingLeft=5;resizeWidth=1;" vertex="1" parent="SRW3x9XXhpBBO422Upoy-4">
          <mxGeometry width="150" height="25" relative="1" as="geometry">
            <mxPoint x="10" y="115" as="offset" />
          </mxGeometry>
        </mxCell>
        <mxCell id="SRW3x9XXhpBBO422Upoy-11" value="LOG IN" style="strokeWidth=1;shadow=0;dashed=0;align=center;html=1;shape=mxgraph.mockup.forms.rrect;rSize=5;strokeColor=none;fontColor=#ffffff;fillColor=#66bbff;fontSize=16;fontStyle=1;" vertex="1" parent="SRW3x9XXhpBBO422Upoy-4">
          <mxGeometry y="1" width="80" height="30" relative="1" as="geometry">
            <mxPoint x="20" y="-150" as="offset" />
          </mxGeometry>
        </mxCell>
        <mxCell id="SRW3x9XXhpBBO422Upoy-13" value="" style="shape=line;strokeColor=#ddeeff;strokeWidth=2;html=1;resizeWidth=1;" vertex="1" parent="SRW3x9XXhpBBO422Upoy-4">
          <mxGeometry y="1" width="180" height="10" relative="1" as="geometry">
            <mxPoint x="10" y="-90" as="offset" />
          </mxGeometry>
        </mxCell>
        <mxCell id="SRW3x9XXhpBBO422Upoy-14" value="New User" style="strokeWidth=1;shadow=0;dashed=0;align=center;html=1;shape=mxgraph.mockup.forms.anchor;fontSize=12;fontColor=#666666;align=left;spacingLeft=0;resizeWidth=1;" vertex="1" parent="SRW3x9XXhpBBO422Upoy-4">
          <mxGeometry y="1" width="150" height="20" relative="1" as="geometry">
            <mxPoint x="10" y="-70" as="offset" />
          </mxGeometry>
        </mxCell>
        <mxCell id="SRW3x9XXhpBBO422Upoy-15" value="SIGN UP" style="strokeWidth=1;shadow=0;dashed=0;align=center;html=1;shape=mxgraph.mockup.forms.rrect;rSize=5;strokeColor=none;fontColor=#ffffff;fillColor=#66bbff;fontSize=16;fontStyle=1;" vertex="1" parent="SRW3x9XXhpBBO422Upoy-4">
          <mxGeometry y="1" width="80" height="30" relative="1" as="geometry">
            <mxPoint x="20" y="-50" as="offset" />
          </mxGeometry>
        </mxCell>
        <mxCell id="SRW3x9XXhpBBO422Upoy-16" value="" style="strokeWidth=1;shadow=0;dashed=0;align=center;html=1;shape=mxgraph.mockup.containers.browserWindow;rSize=0;strokeColor=#666666;strokeColor2=#008cff;strokeColor3=#c4c4c4;mainText=,;recursiveResize=0;" vertex="1" parent="1">
          <mxGeometry x="950" y="-70" width="540" height="450" as="geometry" />
        </mxCell>
        <mxCell id="SRW3x9XXhpBBO422Upoy-17" value="Main" style="strokeWidth=1;shadow=0;dashed=0;align=center;html=1;shape=mxgraph.mockup.containers.anchor;fontSize=17;fontColor=#666666;align=left;whiteSpace=wrap;" vertex="1" parent="SRW3x9XXhpBBO422Upoy-16">
          <mxGeometry x="60" y="12" width="110" height="26" as="geometry" />
        </mxCell>
        <mxCell id="SRW3x9XXhpBBO422Upoy-18" value="main.php" style="strokeWidth=1;shadow=0;dashed=0;align=center;html=1;shape=mxgraph.mockup.containers.anchor;rSize=0;fontSize=17;fontColor=#666666;align=left;" vertex="1" parent="SRW3x9XXhpBBO422Upoy-16">
          <mxGeometry x="130" y="60" width="250" height="26" as="geometry" />
        </mxCell>
        <mxCell id="SRW3x9XXhpBBO422Upoy-30" value="" style="swimlane;shape=mxgraph.bootstrap.anchor;strokeColor=#999999;fillColor=#ffffff;fontColor=#666666;childLayout=stackLayout;horizontal=0;startSize=0;horizontalStack=1;resizeParent=1;resizeParentMax=0;resizeLast=0;collapsible=0;marginBottom=0;whiteSpace=wrap;html=1;" vertex="1" parent="SRW3x9XXhpBBO422Upoy-16">
          <mxGeometry y="130" width="540" height="30" as="geometry" />
        </mxCell>
        <mxCell id="SRW3x9XXhpBBO422Upoy-31" value="Home" style="text;strokeColor=inherit;align=center;verticalAlign=middle;spacingLeft=10;spacingRight=10;overflow=hidden;points=[[0,0.5],[1,0.5]];portConstraint=eastwest;rotatable=0;whiteSpace=wrap;html=1;fillColor=inherit;fontColor=inherit;fontSize=17;" vertex="1" parent="SRW3x9XXhpBBO422Upoy-30">
          <mxGeometry width="90" height="30" as="geometry" />
        </mxCell>
        <mxCell id="SRW3x9XXhpBBO422Upoy-32" value="Create" style="text;strokeColor=inherit;align=center;verticalAlign=middle;spacingLeft=10;spacingRight=10;overflow=hidden;points=[[0,0.5],[1,0.5]];portConstraint=eastwest;rotatable=0;whiteSpace=wrap;html=1;fillColor=inherit;fontColor=inherit;fontSize=17;" vertex="1" parent="SRW3x9XXhpBBO422Upoy-30">
          <mxGeometry x="90" width="90" height="30" as="geometry" />
        </mxCell>
        <mxCell id="SRW3x9XXhpBBO422Upoy-33" value="Take" style="text;strokeColor=inherit;align=center;verticalAlign=middle;spacingLeft=10;spacingRight=10;overflow=hidden;points=[[0,0.5],[1,0.5]];portConstraint=eastwest;rotatable=0;whiteSpace=wrap;html=1;fillColor=inherit;fontColor=inherit;fontSize=17;" vertex="1" parent="SRW3x9XXhpBBO422Upoy-30">
          <mxGeometry x="180" width="90" height="30" as="geometry" />
        </mxCell>
        <mxCell id="SRW3x9XXhpBBO422Upoy-34" value="View" style="text;strokeColor=inherit;align=center;verticalAlign=middle;spacingLeft=10;spacingRight=10;overflow=hidden;points=[[0,0.5],[1,0.5]];portConstraint=eastwest;rotatable=0;whiteSpace=wrap;html=1;fillColor=inherit;fontColor=inherit;fontSize=17;" vertex="1" parent="SRW3x9XXhpBBO422Upoy-30">
          <mxGeometry x="270" width="90" height="30" as="geometry" />
        </mxCell>
        <mxCell id="SRW3x9XXhpBBO422Upoy-35" value="Logout" style="text;strokeColor=inherit;align=center;verticalAlign=middle;spacingLeft=10;spacingRight=10;overflow=hidden;points=[[0,0.5],[1,0.5]];portConstraint=eastwest;rotatable=0;whiteSpace=wrap;html=1;fillColor=inherit;fontColor=inherit;fontSize=17;" vertex="1" parent="SRW3x9XXhpBBO422Upoy-30">
          <mxGeometry x="360" width="90" height="30" as="geometry" />
        </mxCell>
        <mxCell id="SRW3x9XXhpBBO422Upoy-36" value="Help" style="text;strokeColor=inherit;align=center;verticalAlign=middle;spacingLeft=10;spacingRight=10;overflow=hidden;points=[[0,0.5],[1,0.5]];portConstraint=eastwest;rotatable=0;whiteSpace=wrap;html=1;fillColor=inherit;fontColor=inherit;fontSize=17;" vertex="1" parent="SRW3x9XXhpBBO422Upoy-30">
          <mxGeometry x="450" width="90" height="30" as="geometry" />
        </mxCell>
        <mxCell id="SRW3x9XXhpBBO422Upoy-38" value="" style="strokeWidth=1;shadow=0;dashed=0;align=center;html=1;shape=mxgraph.mockup.containers.browserWindow;rSize=0;strokeColor=#666666;strokeColor2=#008cff;strokeColor3=#c4c4c4;mainText=,;recursiveResize=0;" vertex="1" parent="1">
          <mxGeometry x="510" y="-630" width="550" height="450" as="geometry" />
        </mxCell>
        <mxCell id="SRW3x9XXhpBBO422Upoy-39" value="Signup" style="strokeWidth=1;shadow=0;dashed=0;align=center;html=1;shape=mxgraph.mockup.containers.anchor;fontSize=17;fontColor=#666666;align=left;whiteSpace=wrap;" vertex="1" parent="SRW3x9XXhpBBO422Upoy-38">
          <mxGeometry x="60" y="12" width="110" height="26" as="geometry" />
        </mxCell>
        <mxCell id="SRW3x9XXhpBBO422Upoy-40" value="signup.php" style="strokeWidth=1;shadow=0;dashed=0;align=center;html=1;shape=mxgraph.mockup.containers.anchor;rSize=0;fontSize=17;fontColor=#666666;align=left;" vertex="1" parent="SRW3x9XXhpBBO422Upoy-38">
          <mxGeometry x="130" y="60" width="250" height="26" as="geometry" />
        </mxCell>
        <mxCell id="SRW3x9XXhpBBO422Upoy-41" value="" style="strokeWidth=1;shadow=0;dashed=0;align=center;html=1;shape=mxgraph.mockup.forms.rrect;rSize=0;strokeColor=#999999;fillColor=#ffffff;" vertex="1" parent="SRW3x9XXhpBBO422Upoy-38">
          <mxGeometry x="180" y="130" width="200" height="300" as="geometry" />
        </mxCell>
        <mxCell id="SRW3x9XXhpBBO422Upoy-42" value="Sign up" style="strokeWidth=1;shadow=0;dashed=0;align=center;html=1;shape=mxgraph.mockup.forms.anchor;fontSize=12;fontColor=#666666;align=left;resizeWidth=1;spacingLeft=0;" vertex="1" parent="SRW3x9XXhpBBO422Upoy-41">
          <mxGeometry width="100" height="20" relative="1" as="geometry">
            <mxPoint x="10" y="10" as="offset" />
          </mxGeometry>
        </mxCell>
        <mxCell id="SRW3x9XXhpBBO422Upoy-43" value="" style="shape=line;strokeColor=#ddeeff;strokeWidth=2;html=1;resizeWidth=1;" vertex="1" parent="SRW3x9XXhpBBO422Upoy-41">
          <mxGeometry width="180" height="10" relative="1" as="geometry">
            <mxPoint x="10" y="30" as="offset" />
          </mxGeometry>
        </mxCell>
        <mxCell id="SRW3x9XXhpBBO422Upoy-44" value="User Name:" style="strokeWidth=1;shadow=0;dashed=0;align=center;html=1;shape=mxgraph.mockup.forms.anchor;fontSize=12;fontColor=#666666;align=left;resizeWidth=1;spacingLeft=0;" vertex="1" parent="SRW3x9XXhpBBO422Upoy-41">
          <mxGeometry width="100" height="20" relative="1" as="geometry">
            <mxPoint x="10" y="40" as="offset" />
          </mxGeometry>
        </mxCell>
        <mxCell id="SRW3x9XXhpBBO422Upoy-45" value="johndoe" style="strokeWidth=1;shadow=0;dashed=0;align=center;html=1;shape=mxgraph.mockup.forms.rrect;rSize=0;strokeColor=#999999;fontColor=#666666;align=left;spacingLeft=5;resizeWidth=1;" vertex="1" parent="SRW3x9XXhpBBO422Upoy-41">
          <mxGeometry width="150" height="25" relative="1" as="geometry">
            <mxPoint x="10" y="60" as="offset" />
          </mxGeometry>
        </mxCell>
        <mxCell id="SRW3x9XXhpBBO422Upoy-46" value="Password:" style="strokeWidth=1;shadow=0;dashed=0;align=center;html=1;shape=mxgraph.mockup.forms.anchor;fontSize=12;fontColor=#666666;align=left;resizeWidth=1;spacingLeft=0;" vertex="1" parent="SRW3x9XXhpBBO422Upoy-41">
          <mxGeometry width="100" height="20" relative="1" as="geometry">
            <mxPoint x="10" y="95" as="offset" />
          </mxGeometry>
        </mxCell>
        <mxCell id="SRW3x9XXhpBBO422Upoy-47" value="********" style="strokeWidth=1;shadow=0;dashed=0;align=center;html=1;shape=mxgraph.mockup.forms.rrect;rSize=0;strokeColor=#999999;fontColor=#666666;align=left;spacingLeft=5;resizeWidth=1;" vertex="1" parent="SRW3x9XXhpBBO422Upoy-41">
          <mxGeometry width="150" height="25" relative="1" as="geometry">
            <mxPoint x="10" y="115" as="offset" />
          </mxGeometry>
        </mxCell>
        <mxCell id="SRW3x9XXhpBBO422Upoy-51" value="SIGN UP" style="strokeWidth=1;shadow=0;dashed=0;align=center;html=1;shape=mxgraph.mockup.forms.rrect;rSize=5;strokeColor=none;fontColor=#ffffff;fillColor=#66bbff;fontSize=16;fontStyle=1;" vertex="1" parent="SRW3x9XXhpBBO422Upoy-41">
          <mxGeometry y="1" width="80" height="30" relative="1" as="geometry">
            <mxPoint x="60" y="-140" as="offset" />
          </mxGeometry>
        </mxCell>
        <mxCell id="SRW3x9XXhpBBO422Upoy-52" value="" style="strokeWidth=1;shadow=0;dashed=0;align=center;html=1;shape=mxgraph.mockup.containers.browserWindow;rSize=0;strokeColor=#666666;strokeColor2=#008cff;strokeColor3=#c4c4c4;mainText=,;recursiveResize=0;" vertex="1" parent="1">
          <mxGeometry x="380" y="480" width="540" height="450" as="geometry" />
        </mxCell>
        <mxCell id="SRW3x9XXhpBBO422Upoy-53" value="Create survey" style="strokeWidth=1;shadow=0;dashed=0;align=center;html=1;shape=mxgraph.mockup.containers.anchor;fontSize=17;fontColor=#666666;align=left;whiteSpace=wrap;" vertex="1" parent="SRW3x9XXhpBBO422Upoy-52">
          <mxGeometry x="60" y="12" width="110" height="26" as="geometry" />
        </mxCell>
        <mxCell id="SRW3x9XXhpBBO422Upoy-54" value="create_survey.php" style="strokeWidth=1;shadow=0;dashed=0;align=center;html=1;shape=mxgraph.mockup.containers.anchor;rSize=0;fontSize=17;fontColor=#666666;align=left;" vertex="1" parent="SRW3x9XXhpBBO422Upoy-52">
          <mxGeometry x="130" y="60" width="250" height="26" as="geometry" />
        </mxCell>
        <mxCell id="SRW3x9XXhpBBO422Upoy-73" value="" style="swimlane;strokeColor=#999999;swimlaneFillColor=#FFFFFF;fillColor=#ffffff;fontColor=#666666;fontStyle=0;childLayout=stackLayout;horizontal=1;startSize=0;horizontalStack=0;resizeParent=1;resizeParentMax=0;resizeLast=0;collapsible=0;marginBottom=0;whiteSpace=wrap;html=1;" vertex="1" parent="SRW3x9XXhpBBO422Upoy-52">
          <mxGeometry x="95" y="220" width="150" height="120" as="geometry" />
        </mxCell>
        <mxCell id="SRW3x9XXhpBBO422Upoy-74" value="Option 1" style="text;strokeColor=none;align=left;verticalAlign=middle;spacingLeft=27;spacingRight=10;overflow=hidden;points=[[0,0.5],[1,0.5]];portConstraint=eastwest;rotatable=0;whiteSpace=wrap;html=1;fillColor=none;fontColor=inherit;fontSize=17;" vertex="1" parent="SRW3x9XXhpBBO422Upoy-73">
          <mxGeometry width="150" height="30" as="geometry" />
        </mxCell>
        <mxCell id="SRW3x9XXhpBBO422Upoy-75" value="" style="resizable=0;fillColor=#EEEEEE;strokeColor=#999999;gradientColor=#cccccc;html=1;" vertex="1" parent="SRW3x9XXhpBBO422Upoy-74">
          <mxGeometry y="0.5" width="15" height="15" relative="1" as="geometry">
            <mxPoint x="8" y="-7.5" as="offset" />
          </mxGeometry>
        </mxCell>
        <mxCell id="SRW3x9XXhpBBO422Upoy-76" value="Option 2" style="text;strokeColor=none;align=left;verticalAlign=middle;spacingLeft=27;spacingRight=10;overflow=hidden;points=[[0,0.5],[1,0.5]];portConstraint=eastwest;rotatable=0;whiteSpace=wrap;html=1;rSize=5;fillColor=none;fontColor=inherit;fontSize=17;" vertex="1" parent="SRW3x9XXhpBBO422Upoy-73">
          <mxGeometry y="30" width="150" height="30" as="geometry" />
        </mxCell>
        <mxCell id="SRW3x9XXhpBBO422Upoy-77" value="" style="resizable=0;fillColor=#EEEEEE;strokeColor=#999999;gradientColor=#cccccc;html=1;" vertex="1" parent="SRW3x9XXhpBBO422Upoy-76">
          <mxGeometry y="0.5" width="15" height="15" relative="1" as="geometry">
            <mxPoint x="8" y="-7.5" as="offset" />
          </mxGeometry>
        </mxCell>
        <mxCell id="SRW3x9XXhpBBO422Upoy-78" value="Option 3" style="text;strokeColor=none;align=left;verticalAlign=middle;spacingLeft=27;spacingRight=10;overflow=hidden;points=[[0,0.5],[1,0.5]];portConstraint=eastwest;rotatable=0;whiteSpace=wrap;html=1;rSize=5;fillColor=none;fontColor=#008CFF;fontSize=17;" vertex="1" parent="SRW3x9XXhpBBO422Upoy-73">
          <mxGeometry y="60" width="150" height="30" as="geometry" />
        </mxCell>
        <mxCell id="SRW3x9XXhpBBO422Upoy-79" value="" style="shape=mxgraph.mockup.forms.checkbox;resizable=0;fillColor=#AAAAAA;gradientColor=#666666;strokeColor=#444444;html=1;" vertex="1" parent="SRW3x9XXhpBBO422Upoy-78">
          <mxGeometry y="0.5" width="15" height="15" relative="1" as="geometry">
            <mxPoint x="8" y="-7.5" as="offset" />
          </mxGeometry>
        </mxCell>
        <mxCell id="SRW3x9XXhpBBO422Upoy-80" value="Option 4" style="text;strokeColor=none;align=left;verticalAlign=middle;spacingLeft=27;spacingRight=10;overflow=hidden;points=[[0,0.5],[1,0.5]];portConstraint=eastwest;rotatable=0;whiteSpace=wrap;html=1;fillColor=none;fontColor=inherit;fontSize=17;" vertex="1" parent="SRW3x9XXhpBBO422Upoy-73">
          <mxGeometry y="90" width="150" height="30" as="geometry" />
        </mxCell>
        <mxCell id="SRW3x9XXhpBBO422Upoy-81" value="" style="resizable=0;fillColor=#EEEEEE;strokeColor=#999999;gradientColor=#cccccc;html=1;" vertex="1" parent="SRW3x9XXhpBBO422Upoy-80">
          <mxGeometry y="0.5" width="15" height="15" relative="1" as="geometry">
            <mxPoint x="8" y="-7.5" as="offset" />
          </mxGeometry>
        </mxCell>
        <mxCell id="SRW3x9XXhpBBO422Upoy-82" value="Insert question" style="strokeWidth=1;shadow=0;dashed=0;align=center;html=1;shape=mxgraph.mockup.text.textBox;fontColor=#666666;align=left;fontSize=17;spacingLeft=4;spacingTop=-3;whiteSpace=wrap;strokeColor=#666666;mainText=" vertex="1" parent="SRW3x9XXhpBBO422Upoy-52">
          <mxGeometry x="95" y="160" width="150" height="30" as="geometry" />
        </mxCell>
        <mxCell id="SRW3x9XXhpBBO422Upoy-96" value="Create survey" style="strokeWidth=1;shadow=0;dashed=0;align=center;html=1;shape=mxgraph.mockup.buttons.button;strokeColor=#666666;fontColor=#ffffff;mainText=;buttonStyle=round;fontSize=17;fontStyle=1;fillColor=#008cff;whiteSpace=wrap;" vertex="1" parent="SRW3x9XXhpBBO422Upoy-52">
          <mxGeometry x="95" y="370" width="150" height="50" as="geometry" />
        </mxCell>
        <mxCell id="SRW3x9XXhpBBO422Upoy-83" value="" style="strokeWidth=1;shadow=0;dashed=0;align=center;html=1;shape=mxgraph.mockup.containers.browserWindow;rSize=0;strokeColor=#666666;strokeColor2=#008cff;strokeColor3=#c4c4c4;mainText=,;recursiveResize=0;" vertex="1" parent="1">
          <mxGeometry x="1080" y="480" width="540" height="450" as="geometry" />
        </mxCell>
        <mxCell id="SRW3x9XXhpBBO422Upoy-84" value="Take survey" style="strokeWidth=1;shadow=0;dashed=0;align=center;html=1;shape=mxgraph.mockup.containers.anchor;fontSize=17;fontColor=#666666;align=left;whiteSpace=wrap;" vertex="1" parent="SRW3x9XXhpBBO422Upoy-83">
          <mxGeometry x="60" y="12" width="110" height="26" as="geometry" />
        </mxCell>
        <mxCell id="SRW3x9XXhpBBO422Upoy-85" value="take_survey.php" style="strokeWidth=1;shadow=0;dashed=0;align=center;html=1;shape=mxgraph.mockup.containers.anchor;rSize=0;fontSize=17;fontColor=#666666;align=left;" vertex="1" parent="SRW3x9XXhpBBO422Upoy-83">
          <mxGeometry x="130" y="60" width="250" height="26" as="geometry" />
        </mxCell>
        <mxCell id="SRW3x9XXhpBBO422Upoy-86" value="" style="swimlane;strokeColor=#999999;swimlaneFillColor=#FFFFFF;fillColor=#ffffff;fontColor=#666666;fontStyle=0;childLayout=stackLayout;horizontal=1;startSize=0;horizontalStack=0;resizeParent=1;resizeParentMax=0;resizeLast=0;collapsible=0;marginBottom=0;whiteSpace=wrap;html=1;" vertex="1" parent="SRW3x9XXhpBBO422Upoy-83">
          <mxGeometry x="95" y="220" width="150" height="120" as="geometry" />
        </mxCell>
        <mxCell id="SRW3x9XXhpBBO422Upoy-87" value="Option 1" style="text;strokeColor=none;align=left;verticalAlign=middle;spacingLeft=27;spacingRight=10;overflow=hidden;points=[[0,0.5],[1,0.5]];portConstraint=eastwest;rotatable=0;whiteSpace=wrap;html=1;fillColor=none;fontColor=inherit;fontSize=17;" vertex="1" parent="SRW3x9XXhpBBO422Upoy-86">
          <mxGeometry width="150" height="30" as="geometry" />
        </mxCell>
        <mxCell id="SRW3x9XXhpBBO422Upoy-88" value="" style="resizable=0;fillColor=#EEEEEE;strokeColor=#999999;gradientColor=#cccccc;html=1;" vertex="1" parent="SRW3x9XXhpBBO422Upoy-87">
          <mxGeometry y="0.5" width="15" height="15" relative="1" as="geometry">
            <mxPoint x="8" y="-7.5" as="offset" />
          </mxGeometry>
        </mxCell>
        <mxCell id="SRW3x9XXhpBBO422Upoy-89" value="Option 2" style="text;strokeColor=none;align=left;verticalAlign=middle;spacingLeft=27;spacingRight=10;overflow=hidden;points=[[0,0.5],[1,0.5]];portConstraint=eastwest;rotatable=0;whiteSpace=wrap;html=1;rSize=5;fillColor=none;fontColor=inherit;fontSize=17;" vertex="1" parent="SRW3x9XXhpBBO422Upoy-86">
          <mxGeometry y="30" width="150" height="30" as="geometry" />
        </mxCell>
        <mxCell id="SRW3x9XXhpBBO422Upoy-90" value="" style="resizable=0;fillColor=#EEEEEE;strokeColor=#999999;gradientColor=#cccccc;html=1;" vertex="1" parent="SRW3x9XXhpBBO422Upoy-89">
          <mxGeometry y="0.5" width="15" height="15" relative="1" as="geometry">
            <mxPoint x="8" y="-7.5" as="offset" />
          </mxGeometry>
        </mxCell>
        <mxCell id="SRW3x9XXhpBBO422Upoy-91" value="Option 3" style="text;strokeColor=none;align=left;verticalAlign=middle;spacingLeft=27;spacingRight=10;overflow=hidden;points=[[0,0.5],[1,0.5]];portConstraint=eastwest;rotatable=0;whiteSpace=wrap;html=1;rSize=5;fillColor=none;fontColor=#008CFF;fontSize=17;" vertex="1" parent="SRW3x9XXhpBBO422Upoy-86">
          <mxGeometry y="60" width="150" height="30" as="geometry" />
        </mxCell>
        <mxCell id="SRW3x9XXhpBBO422Upoy-92" value="" style="shape=mxgraph.mockup.forms.checkbox;resizable=0;fillColor=#AAAAAA;gradientColor=#666666;strokeColor=#444444;html=1;" vertex="1" parent="SRW3x9XXhpBBO422Upoy-91">
          <mxGeometry y="0.5" width="15" height="15" relative="1" as="geometry">
            <mxPoint x="8" y="-7.5" as="offset" />
          </mxGeometry>
        </mxCell>
        <mxCell id="SRW3x9XXhpBBO422Upoy-93" value="Option 4" style="text;strokeColor=none;align=left;verticalAlign=middle;spacingLeft=27;spacingRight=10;overflow=hidden;points=[[0,0.5],[1,0.5]];portConstraint=eastwest;rotatable=0;whiteSpace=wrap;html=1;fillColor=none;fontColor=inherit;fontSize=17;" vertex="1" parent="SRW3x9XXhpBBO422Upoy-86">
          <mxGeometry y="90" width="150" height="30" as="geometry" />
        </mxCell>
        <mxCell id="SRW3x9XXhpBBO422Upoy-94" value="" style="resizable=0;fillColor=#EEEEEE;strokeColor=#999999;gradientColor=#cccccc;html=1;" vertex="1" parent="SRW3x9XXhpBBO422Upoy-93">
          <mxGeometry y="0.5" width="15" height="15" relative="1" as="geometry">
            <mxPoint x="8" y="-7.5" as="offset" />
          </mxGeometry>
        </mxCell>
        <mxCell id="SRW3x9XXhpBBO422Upoy-95" value="Choose an option" style="strokeWidth=1;shadow=0;dashed=0;align=center;html=1;shape=mxgraph.mockup.text.textBox;fontColor=#666666;align=left;fontSize=17;spacingLeft=4;spacingTop=-3;whiteSpace=wrap;strokeColor=#666666;mainText=" vertex="1" parent="SRW3x9XXhpBBO422Upoy-83">
          <mxGeometry x="95" y="160" width="150" height="30" as="geometry" />
        </mxCell>
        <mxCell id="SRW3x9XXhpBBO422Upoy-97" value="Submit responses" style="strokeWidth=1;shadow=0;dashed=0;align=center;html=1;shape=mxgraph.mockup.buttons.button;strokeColor=#666666;fontColor=#ffffff;mainText=;buttonStyle=round;fontSize=17;fontStyle=1;fillColor=#008cff;whiteSpace=wrap;" vertex="1" parent="SRW3x9XXhpBBO422Upoy-83">
          <mxGeometry x="95" y="370" width="150" height="50" as="geometry" />
        </mxCell>
        <mxCell id="SRW3x9XXhpBBO422Upoy-98" value="" style="strokeWidth=1;shadow=0;dashed=0;align=center;html=1;shape=mxgraph.mockup.containers.browserWindow;rSize=0;strokeColor=#666666;strokeColor2=#008cff;strokeColor3=#c4c4c4;mainText=,;recursiveResize=0;" vertex="1" parent="1">
          <mxGeometry x="1800" y="480" width="540" height="450" as="geometry" />
        </mxCell>
        <mxCell id="SRW3x9XXhpBBO422Upoy-99" value="View responses" style="strokeWidth=1;shadow=0;dashed=0;align=center;html=1;shape=mxgraph.mockup.containers.anchor;fontSize=17;fontColor=#666666;align=left;whiteSpace=wrap;" vertex="1" parent="SRW3x9XXhpBBO422Upoy-98">
          <mxGeometry x="50" y="12" width="130" height="26" as="geometry" />
        </mxCell>
        <mxCell id="SRW3x9XXhpBBO422Upoy-100" value="view_responses.php" style="strokeWidth=1;shadow=0;dashed=0;align=center;html=1;shape=mxgraph.mockup.containers.anchor;rSize=0;fontSize=17;fontColor=#666666;align=left;" vertex="1" parent="SRW3x9XXhpBBO422Upoy-98">
          <mxGeometry x="130" y="60" width="250" height="26" as="geometry" />
        </mxCell>
        <mxCell id="SRW3x9XXhpBBO422Upoy-112" value="- Response 1&lt;div&gt;- Response 2&lt;/div&gt;&lt;div&gt;- Response 3&lt;/div&gt;&lt;div&gt;- Response 4&lt;/div&gt;" style="strokeWidth=1;shadow=0;dashed=0;align=center;html=1;shape=mxgraph.mockup.text.bulletedList;textColor=#666666;mainText=,,,,;textSize=17;bulletStyle=none;strokeColor=none;fillColor=none;align=left;verticalAlign=top;fontSize=17;fontColor=#666666;" vertex="1" parent="SRW3x9XXhpBBO422Upoy-98">
          <mxGeometry x="80" y="192" width="150" height="135" as="geometry" />
        </mxCell>
        <mxCell id="SRW3x9XXhpBBO422Upoy-114" value="Survey title" style="strokeWidth=1;shadow=0;dashed=0;align=center;html=1;shape=mxgraph.mockup.text.textBox;fontColor=#666666;align=left;fontSize=17;spacingLeft=4;spacingTop=-3;whiteSpace=wrap;strokeColor=#666666;mainText=" vertex="1" parent="SRW3x9XXhpBBO422Upoy-98">
          <mxGeometry x="70" y="143" width="150" height="30" as="geometry" />
        </mxCell>
        <mxCell id="SRW3x9XXhpBBO422Upoy-115" style="edgeStyle=orthogonalEdgeStyle;rounded=0;orthogonalLoop=1;jettySize=auto;html=1;entryX=0.427;entryY=-0.013;entryDx=0;entryDy=0;entryPerimeter=0;" edge="1" parent="1" source="SRW3x9XXhpBBO422Upoy-11" target="SRW3x9XXhpBBO422Upoy-16">
          <mxGeometry relative="1" as="geometry" />
        </mxCell>
        <mxCell id="SRW3x9XXhpBBO422Upoy-118" value="" style="endArrow=classic;html=1;rounded=0;exitX=0.497;exitY=1.19;exitDx=0;exitDy=0;exitPerimeter=0;entryX=0.731;entryY=-0.003;entryDx=0;entryDy=0;entryPerimeter=0;" edge="1" parent="1" source="SRW3x9XXhpBBO422Upoy-32" target="SRW3x9XXhpBBO422Upoy-52">
          <mxGeometry width="50" height="50" relative="1" as="geometry">
            <mxPoint x="830" y="380" as="sourcePoint" />
            <mxPoint x="880" y="330" as="targetPoint" />
          </mxGeometry>
        </mxCell>
        <mxCell id="SRW3x9XXhpBBO422Upoy-119" value="" style="endArrow=classic;html=1;rounded=0;entryX=0.15;entryY=0.001;entryDx=0;entryDy=0;entryPerimeter=0;exitX=0.522;exitY=1.033;exitDx=0;exitDy=0;exitPerimeter=0;" edge="1" parent="1" source="SRW3x9XXhpBBO422Upoy-34" target="SRW3x9XXhpBBO422Upoy-98">
          <mxGeometry width="50" height="50" relative="1" as="geometry">
            <mxPoint x="1260" y="280" as="sourcePoint" />
            <mxPoint x="900" y="673" as="targetPoint" />
          </mxGeometry>
        </mxCell>
        <mxCell id="SRW3x9XXhpBBO422Upoy-120" value="" style="endArrow=classic;html=1;rounded=0;exitX=0.576;exitY=0.924;exitDx=0;exitDy=0;exitPerimeter=0;entryX=0.424;entryY=0.004;entryDx=0;entryDy=0;entryPerimeter=0;" edge="1" parent="1" source="SRW3x9XXhpBBO422Upoy-33" target="SRW3x9XXhpBBO422Upoy-83">
          <mxGeometry width="50" height="50" relative="1" as="geometry">
            <mxPoint x="1260" y="280" as="sourcePoint" />
            <mxPoint x="900" y="673" as="targetPoint" />
          </mxGeometry>
        </mxCell>
        <mxCell id="SRW3x9XXhpBBO422Upoy-121" value="" style="endArrow=classic;html=1;rounded=0;entryX=0.75;entryY=1.008;entryDx=0;entryDy=0;entryPerimeter=0;exitX=0.486;exitY=0.22;exitDx=0;exitDy=0;exitPerimeter=0;" edge="1" parent="1" source="SRW3x9XXhpBBO422Upoy-35" target="SRW3x9XXhpBBO422Upoy-1">
          <mxGeometry width="50" height="50" relative="1" as="geometry">
            <mxPoint x="1350" y="-100" as="sourcePoint" />
            <mxPoint x="1400" y="-150" as="targetPoint" />
          </mxGeometry>
        </mxCell>
        <mxCell id="SRW3x9XXhpBBO422Upoy-117" style="edgeStyle=orthogonalEdgeStyle;rounded=0;orthogonalLoop=1;jettySize=auto;html=1;entryX=1;entryY=0.858;entryDx=0;entryDy=0;entryPerimeter=0;" edge="1" parent="1" source="SRW3x9XXhpBBO422Upoy-15" target="SRW3x9XXhpBBO422Upoy-38">
          <mxGeometry relative="1" as="geometry">
            <mxPoint x="890" y="-255" as="targetPoint" />
            <Array as="points">
              <mxPoint x="1220" y="-244" />
              <mxPoint x="1220" y="-244" />
            </Array>
          </mxGeometry>
        </mxCell>
        <mxCell id="SRW3x9XXhpBBO422Upoy-123" style="edgeStyle=orthogonalEdgeStyle;rounded=0;orthogonalLoop=1;jettySize=auto;html=1;entryX=0.002;entryY=0.293;entryDx=0;entryDy=0;entryPerimeter=0;" edge="1" parent="1" source="SRW3x9XXhpBBO422Upoy-51" target="SRW3x9XXhpBBO422Upoy-16">
          <mxGeometry relative="1" as="geometry">
            <mxPoint x="605" y="15.052682976973642" as="targetPoint" />
            <Array as="points">
              <mxPoint x="790" y="62" />
            </Array>
          </mxGeometry>
        </mxCell>
      </root>
    </mxGraphModel>
  </diagram>
</mxfile>
